<svg width="64" height="64" viewBox="0 0 64 64" fill="none" xmlns="http://www.w3.org/2000/svg">
<path d="M53.42 53.3201H10.58C8.32643 53.3174 6.16596 52.421 4.57247 50.8275C2.97899 49.2341 2.0826 47.0736 2.07996 44.8201V19.1801C2.0826 16.9265 2.97899 14.7661 4.57247 13.1726C6.16596 11.5791 8.32643 10.6827 10.58 10.6801H53.42C55.6735 10.6827 57.834 11.5791 59.4274 13.1726C61.0209 14.7661 61.9173 16.9265 61.92 19.1801V44.8201C61.9173 47.0736 61.0209 49.2341 59.4274 50.8275C57.834 52.421 55.6735 53.3174 53.42 53.3201ZM10.58 13.6801C9.12127 13.6801 7.72232 14.2595 6.69087 15.291C5.65942 16.3224 5.07996 17.7214 5.07996 19.1801V44.8201C5.07996 46.2787 5.65942 47.6777 6.69087 48.7091C7.72232 49.7406 9.12127 50.3201 10.58 50.3201H53.42C54.8786 50.3201 56.2776 49.7406 57.309 48.7091C58.3405 47.6777 58.92 46.2787 58.92 44.8201V19.1801C58.92 17.7214 58.3405 16.3224 57.309 15.291C56.2776 14.2595 54.8786 13.6801 53.42 13.6801H10.58Z" fill="white"/>
<path d="M32 38.08C30.1496 38.0829 28.3486 37.4825 26.87 36.37L3.52001 18.71C3.35503 18.5942 3.21508 18.4463 3.10852 18.2753C3.00195 18.1042 2.93096 17.9134 2.89977 17.7142C2.86859 17.5151 2.87786 17.3117 2.92703 17.1163C2.97619 16.9208 3.06425 16.7373 3.18593 16.5766C3.30761 16.4159 3.46043 16.2814 3.63526 16.1811C3.81008 16.0808 4.00333 16.0168 4.20346 15.9928C4.40358 15.9689 4.60649 15.9855 4.80004 16.0417C4.9936 16.0979 5.17385 16.1925 5.33001 16.32L28.68 34C29.6389 34.7158 30.8034 35.1025 32 35.1025C33.1966 35.1025 34.3611 34.7158 35.32 34L58.67 16.32C58.8262 16.1925 59.0064 16.0979 59.2 16.0417C59.3935 15.9855 59.5964 15.9689 59.7966 15.9928C59.9967 16.0168 60.1899 16.0808 60.3648 16.1811C60.5396 16.2814 60.6924 16.4159 60.8141 16.5766C60.9358 16.7373 61.0238 16.9208 61.073 17.1163C61.1222 17.3117 61.1314 17.5151 61.1003 17.7142C61.0691 17.9134 60.9981 18.1042 60.8915 18.2753C60.7849 18.4463 60.645 18.5942 60.48 18.71L37.13 36.37C35.6514 37.4825 33.8504 38.0829 32 38.08Z" fill="white"/>
<path d="M4.17005 49.14C3.86582 49.1404 3.56865 49.0484 3.31797 48.876C3.06728 48.7036 2.87494 48.4591 2.76645 48.1749C2.65797 47.8906 2.63848 47.5801 2.71056 47.2846C2.78264 46.989 2.94289 46.7224 3.17005 46.52L21.5701 30.11C21.8671 29.8448 22.2573 29.7084 22.6549 29.7309C23.0525 29.7534 23.4248 29.9329 23.6901 30.23C23.9553 30.527 24.0916 30.9173 24.0691 31.3148C24.0466 31.7124 23.8671 32.0848 23.5701 32.35L5.17005 48.76C4.8968 49.0086 4.53946 49.1444 4.17005 49.14ZM59.8301 49.14C59.4606 49.1444 59.1033 49.0086 58.8301 48.76L40.43 32.35C40.133 32.0848 39.9535 31.7124 39.931 31.3148C39.9085 30.9173 40.0448 30.527 40.3101 30.23C40.5753 29.9329 40.9476 29.7534 41.3452 29.7309C41.7428 29.7084 42.133 29.8448 42.43 30.11L60.82 46.52C61.0472 46.7224 61.2075 46.989 61.2795 47.2846C61.3516 47.5801 61.3321 47.8906 61.2236 48.1749C61.1152 48.4591 60.9228 48.7036 60.6721 48.876C60.4215 49.0484 60.1243 49.1404 59.82 49.14H59.8301Z" fill="white"/>
</svg>
