<svg width="70" height="70" viewBox="0 0 70 70" fill="none" xmlns="http://www.w3.org/2000/svg">
<path d="M35 6.55286C28.0743 6.55314 21.3747 9.01777 16.0999 13.5057C10.8251 17.9937 7.31938 24.2122 6.20997 31.0484C5.10056 37.8847 6.45988 44.8927 10.0447 50.8184C13.6295 56.7441 19.2059 61.2009 25.7761 63.3914C27.2344 63.6466 27.7813 62.7717 27.7813 62.006C27.7813 61.3133 27.7448 59.0164 27.7448 56.5737C20.4167 57.9226 18.5208 54.7873 17.9375 53.1467C17.2902 51.5511 16.2641 50.137 14.9479 49.0268C13.9271 48.4799 12.4687 47.131 14.9114 47.0946C15.8441 47.1958 16.7387 47.5203 17.5193 48.0407C18.3 48.5611 18.9436 49.2621 19.3958 50.0841C19.7947 50.8007 20.3311 51.4316 20.9743 51.9405C21.6175 52.4495 22.3547 52.8265 23.1438 53.0501C23.933 53.2736 24.7584 53.3392 25.573 53.2432C26.3875 53.1471 27.1751 52.8913 27.8906 52.4903C28.0168 51.0076 28.6777 49.6212 29.75 48.5894C23.2604 47.8602 16.4792 45.3445 16.4792 34.1884C16.4382 31.2896 17.5078 28.485 19.4687 26.3498C18.5771 23.8305 18.6814 21.0656 19.7604 18.6207C19.7604 18.6207 22.203 17.855 27.7812 21.6102C32.5538 20.2977 37.5921 20.2977 42.3646 21.6102C47.9426 17.8186 50.3854 18.6207 50.3854 18.6207C51.4646 21.0656 51.5689 23.8305 50.6771 26.3498C52.6439 28.4814 53.7145 31.2884 53.6667 34.1884C53.6667 45.381 46.8489 47.8602 40.3594 48.5894C41.0554 49.2949 41.5915 50.1419 41.9312 51.073C42.2709 52.004 42.4063 52.9972 42.3281 53.9852C42.3281 57.8863 42.2916 61.0216 42.2916 62.0061C42.2916 62.7717 42.8385 63.6832 44.2968 63.3915C50.8555 61.1832 56.4158 56.7159 59.9854 50.7872C63.5549 44.8584 64.9013 37.854 63.7842 31.0244C62.6671 24.1947 59.1593 17.9844 53.8868 13.5018C48.6143 9.01934 41.9204 6.55646 35 6.55286Z" fill="white"/>
</svg>
