<svg width="24" height="24" viewBox="0 0 24 24" fill="none" xmlns="http://www.w3.org/2000/svg">
<path d="M3.34495 21.601L1.41895 0H22.5809L20.6529 21.597L11.9869 24L3.34495 21.601Z" fill="#E44D26"/>
<path d="M12 22.164L19.003 20.223L20.65 1.766H12V22.164Z" fill="#F16529"/>
<path d="M11.9999 9.778H8.49393L8.25193 7.065H11.9999V4.416H5.35693L5.41993 5.126L6.07093 12.427H11.9999V9.778ZM11.9999 16.658L11.9879 16.661L9.03793 15.864L8.84893 13.751H6.18993L6.56093 17.911L11.9879 19.417L11.9999 19.414V16.658Z" fill="#EBEBEB"/>
<path d="M11.991 9.778V12.427H15.253L14.945 15.863L11.99 16.66V19.416L17.421 17.911L17.461 17.463L18.084 10.488L18.149 9.777H17.435L11.991 9.778ZM11.991 4.416V7.065H18.39L18.443 6.469L18.564 5.126L18.627 4.415L11.991 4.416Z" fill="white"/>
</svg>
