<svg width="176" height="176" viewBox="0 0 176 176" fill="none" xmlns="http://www.w3.org/2000/svg">
<g clip-path="url(#clip0_3017_10)">
<path d="M149.6 0H26.4C11.8197 0 0 11.8197 0 26.4V149.6C0 164.18 11.8197 176 26.4 176H149.6C164.18 176 176 164.18 176 149.6V26.4C176 11.8197 164.18 0 149.6 0Z" fill="#F7DF1E"/>
<path d="M111.375 127.188C114.812 133.031 119.625 137.156 127.531 137.156C134.406 137.156 138.875 133.719 138.875 128.906C138.875 123.406 134.406 121.344 126.844 117.906L122.719 116.188C110.688 111.031 102.781 104.844 102.781 91.4375C102.781 79.0625 112.062 69.4375 126.844 69.4375C137.5 69.4375 145.062 73.2188 150.219 82.8438L137.5 91.0938C134.75 85.9375 131.656 83.875 126.844 83.875C122.031 83.875 118.938 86.9688 118.938 91.0938C118.938 95.9062 122.031 97.9688 129.25 101.062L133.375 102.781C147.469 108.969 155.375 114.812 155.375 128.906C155.375 143.688 143.688 151.938 127.875 151.938C112.406 151.938 102.438 144.719 97.625 135.094L111.375 127.188ZM52.9375 128.562C55.6875 133.031 57.75 137.156 63.5938 137.156C69.0938 137.156 72.5312 135.094 72.5312 126.844V69.7812H89.0312V126.156C89.0312 143.344 79.0625 150.906 64.2812 150.906C50.875 150.906 43.3125 144.031 39.5312 135.781L52.9375 128.562Z" fill="black"/>
</g>
<defs>
<clipPath id="clip0_3017_10">
<rect width="176" height="176" fill="white"/>
</clipPath>
</defs>
</svg>
