<svg width="117" height="26" viewBox="0 0 117 26" fill="none" xmlns="http://www.w3.org/2000/svg">
<path d="M0.000999928 19.3383H4.109V3.11533L10.469 17.2583C11.219 18.9703 12.246 19.5753 14.261 19.5753C16.276 19.5753 17.264 18.9703 18.014 17.2583L24.374 3.11533V19.3383H28.482V3.14233C28.482 1.56233 27.85 0.797336 26.546 0.403336C23.425 -0.570664 21.331 0.272334 20.383 2.37933L14.142 16.3373L8.099 2.37833C7.19 0.272335 5.057 -0.570663 1.936 0.402337C0.632 0.797337 0 1.56134 0 3.14134L0.000999928 19.3383ZM31.899 6.13233H36.006V15.0703C35.968 15.5553 36.162 16.6953 38.412 16.7313C39.56 16.7493 47.274 16.7313 47.346 16.7313V6.08833H51.463C51.482 6.08833 51.459 20.6023 51.459 20.6623C51.481 24.2423 47.018 25.0193 44.96 25.0793H31.988V22.3153C32.01 22.3153 44.951 22.3183 44.983 22.3143C47.628 22.0353 47.315 20.7213 47.314 20.2793V19.2013H38.583C34.521 19.1643 31.933 17.3913 31.9 15.3513C31.898 15.1643 31.989 6.22233 31.899 6.13233Z" fill="#00618A"/>
<path d="M54.4705 18.961H66.2825C67.6655 18.961 69.0095 18.672 70.0755 18.172C71.8525 17.356 72.7215 16.25 72.7215 14.8V11.798C72.7215 10.613 71.7345 9.506 69.7985 8.77C68.7715 8.374 67.5065 8.165 66.2815 8.165H61.3035C59.6445 8.165 58.8545 7.665 58.6575 6.559C58.6185 6.427 58.6185 6.32199 58.6185 6.18999V4.32C58.6185 4.215 58.6185 4.109 58.6575 3.978C58.8545 3.135 59.2895 2.898 60.7515 2.766L61.1465 2.74H72.8795V0.0019989H61.3445C59.6855 0.0019989 58.8165 0.107002 58.0265 0.344002C55.5775 1.108 54.5095 2.31899 54.5095 4.42599V6.822C54.5095 8.666 56.6045 10.246 60.1195 10.615C60.5155 10.64 60.9095 10.668 61.3045 10.668H65.5715C65.7295 10.668 65.8875 10.668 66.0065 10.693C67.3105 10.798 67.8625 11.036 68.2585 11.509C68.4955 11.746 68.5735 11.984 68.5735 12.246V14.643C68.5735 14.932 68.3765 15.301 67.9815 15.617C67.6265 15.933 67.0335 16.144 66.2435 16.197L65.8085 16.223H54.4705V18.961ZM98.3515 14.195C98.3515 17.012 100.445 18.592 104.671 18.909C105.066 18.935 105.461 18.961 105.856 18.961H116.562V16.223H105.778C103.368 16.223 102.46 15.617 102.46 14.168V0H98.3525L98.3515 14.195ZM75.3435 14.337V4.572C75.3435 2.092 77.0855 0.587 80.5295 0.112C80.8855 0.0589995 81.2825 0.0329971 81.6375 0.0329971H89.4365C89.8325 0.0329971 90.1885 0.0589995 90.5835 0.112C94.0275 0.587 95.7705 2.091 95.7705 4.572V14.337C95.7705 16.351 95.0305 17.427 93.3255 18.129L97.3735 21.782H92.6025L89.3285 18.826L86.0325 19.035H81.6375C80.8855 19.035 80.0945 18.93 79.2235 18.692C76.6105 17.98 75.3435 16.607 75.3435 14.337ZM79.7775 14.1C79.7775 14.232 79.8165 14.365 79.8565 14.523C80.0935 15.658 81.1635 16.291 82.7855 16.291H86.5175L83.0895 13.196H87.8605L90.8495 15.896C91.4015 15.601 91.7635 15.153 91.8905 14.576C91.9295 14.444 91.9295 14.312 91.9295 14.18V4.812C91.9295 4.707 91.9295 4.574 91.8905 4.442C91.6525 3.386 90.5835 2.78 89.0005 2.78H82.7845C80.9645 2.78 79.7765 3.572 79.7765 4.812L79.7775 14.1Z" fill="#E48E00"/>
</svg>
